<?xml version="1.0" encoding="UTF-8" standalone="no"?>
<!-- Created with Inkscape (http://www.inkscape.org/) -->
<svg xmlns:dc="http://purl.org/dc/elements/1.1/" xmlns:cc="http://web.resource.org/cc/" xmlns:rdf="http://www.w3.org/1999/02/22-rdf-syntax-ns#" xmlns:svg="http://www.w3.org/2000/svg" xmlns="http://www.w3.org/2000/svg" xmlns:xlink="http://www.w3.org/1999/xlink" xmlns:sodipodi="http://sodipodi.sourceforge.net/DTD/sodipodi-0.dtd" xmlns:inkscape="http://www.inkscape.org/namespaces/inkscape" width="300" height="300" id="svg2" sodipodi:version="0.32" inkscape:version="0.45.1" version="1.0" inkscape:output_extension="org.inkscape.output.svg.inkscape">
  <g inkscape:label="Layer 1" inkscape:groupmode="layer" id="layer1" transform="translate(-619.97424,97.476573)">
    <path id="path4730" d="M 619.97424,-97.468446 L 919.97424,-97.468446 L 919.97424,202.51643 L 619.97424,202.51643 L 619.97424,-97.468446 z " style="fill:#ffffff;fill-rule:nonzero;stroke:none"/>
    <path id="path4732" d="M 626.11583,196.37484 L 913.8024,196.37484 L 913.8024,-91.31173 L 626.11583,-91.31173 L 626.11583,196.37484 z M 623.80139,-93.641298 L 916.16222,-93.641298 L 916.16222,198.68928 L 623.80139,198.68928 L 623.80139,-93.641298 z " style="fill:#000000;fill-rule:evenodd;stroke:none"/>
    <path id="path4734" d="M 646.58275,51.911344 L 893.72878,51.911344 L 893.72878,54.240913 L 646.58275,54.240913 L 646.58275,51.911344 z " style="fill:#000000;fill-rule:nonzero;stroke:none"/>
    <path id="path4736" d="M 846.94076,35.558984 L 863.39901,8.8143294 C 867.42281,2.884519 871.83991,-1.3208058 878.48069,-1.3208058 C 881.53636,-1.3208058 885.81732,-0.59470652 886.51317,2.7332483 C 881.53636,2.7332483 878.20841,5.0476896 878.20841,10.251401 C 878.20841,14.441598 882.21708,16.90731 885.95347,16.90731 C 891.48997,16.90731 893.71365,12.717113 893.71365,7.2108602 C 893.71365,-2.7578772 887.4813,-8.112859 878.07226,-8.112859 C 870.03979,-8.112859 863.82257,-2.7578772 858.4222,5.9099324 L 858.14992,5.7737888 L 858.14992,-5.9496884 L 830.90607,-5.9496884 L 830.90607,0.85749195 L 841.40425,0.85749195 C 845.97263,0.85749195 846.94076,3.0206626 846.94076,7.4982745 L 846.94076,35.558984" style="fill:#f6d200;fill-rule:evenodd;stroke:none"/>
    <path id="path4738" d="M 661.31652,7.4226392 L 661.31652,35.347206 L 678.09243,8.723567 C 682.17674,2.8240107 686.83588,-1.0636456 693.44641,-1.3510599 C 709.08779,-1.9258884 710.64588,15.197952 710.9333,18.359509 L 711.06944,18.51078 C 711.06944,18.51078 718.39094,0.08601151 732.20195,-1.3510599 C 746.19449,-2.7730042 748.90224,11.703599 749.41656,16.952692 C 749.53757,18.087222 749.59808,23.941397 749.59808,23.941397 L 755.37662,23.941397 C 755.39175,23.941397 755.39175,18.102349 755.37662,16.937565 C 755.28586,10.871611 753.04705,-7.9918425 732.35322,-8.112859 C 723.32236,-7.5380304 717.54382,-2.3645734 713.45952,3.5349829 C 710.78203,-2.939402 704.7312,-7.9767154 693.59768,-8.112859 C 683.44741,-7.4018868 677.53273,-1.0636456 673.29715,5.6981535 L 673.29715,-5.9496884 L 646.52224,-5.9496884 L 646.52224,0.81211074 L 656.1128,0.81211074 C 660.75681,0.81211074 661.31652,2.9601543 661.31652,7.4226392" style="fill:#000000;fill-rule:nonzero;stroke:none"/>
    <path id="path4740" d="M 773.78626,34.515217 C 773.78626,34.273184 773.31732,31.958742 773.15092,30.294765 C 772.86351,27.466003 773.04503,23.896016 773.10554,23.018646 C 773.99804,10.448053 780.01861,-0.56445239 793.37581,-0.44343585 C 804.07065,-0.29216517 809.95508,7.2108602 812.81409,10.130384 L 825.35443,24.18343 L 825.35443,-33.269172 L 799.26024,-33.269172 L 799.26024,-26.719152 L 806.68763,-26.719152 C 811.39215,-26.719152 813.23765,-23.391197 813.23765,-18.792569 L 813.23765,0.94825435 C 807.11119,-5.7227824 799.36613,-8.2187485 790.24451,-8.2187485 C 770.21627,-8.2187485 760.68622,7.2562414 759.55169,23.154789 C 759.47606,24.243938 759.2794,28.237484 760.08114,34.515217 L 773.78626,34.515217" style="fill:#df0024;fill-rule:nonzero;stroke:none"/>
    <path id="path4742" d="M 732.95831,137.98436 L 741.6715,137.98436 L 741.6715,93.752813 L 732.95831,93.752813 L 732.95831,137.98436 z M 732.3986,83.859711 L 742.2312,83.859711 L 742.2312,74.662454 L 732.3986,74.662454 L 732.3986,83.859711 z " style="fill:#df0024;fill-rule:evenodd;stroke:none"/>
    <path id="path4744" d="M 758.03898,137.98436 L 766.75217,137.98436 L 766.75217,117.51744 C 766.75217,106.76209 771.19953,99.304446 781.10776,99.304446 C 788.71668,99.728004 791.12188,104.76532 791.12188,115.08198 L 791.12188,137.98436 L 799.83507,137.98436 L 799.83507,111.70864 C 799.83507,99.818767 794.3742,92.709045 782.1364,92.709045 C 775.55613,92.709045 769.24814,95.749586 766.64629,100.77177 L 766.46476,100.77177 L 766.46476,93.752813 L 758.03898,93.752813 L 758.03898,137.98436" style="fill:#df0024;fill-rule:nonzero;stroke:none"/>
    <path id="path4746" d="M 820.78606,137.98436 L 829.49925,137.98436 L 829.49925,100.34822 L 842.00933,100.34822 L 842.00933,93.752813 L 829.49925,93.752813 L 829.49925,88.972659 C 829.49925,82.997468 830.422,78.489602 837.92503,78.489602 C 839.40748,78.489602 841.08658,78.655999 842.1001,79.003922 L 842.47827,72.408521 C 840.70841,72.15136 838.8629,71.8942 836.63923,71.8942 C 823.75096,71.8942 820.78606,78.91316 820.78606,89.668504 L 820.78606,93.752813 L 809.65254,93.752813 L 809.65254,100.34822 L 820.78606,100.34822 L 820.78606,137.98436" style="fill:#df0024;fill-rule:nonzero;stroke:none"/>
    <path id="path4748" d="M 845.89699,115.86859 C 845.89699,128.52994 855.71446,139.02813 869.99441,139.02813 C 884.16847,139.02813 894.00107,128.52994 894.00107,115.86859 C 894.00107,102.42063 884.36512,92.709045 869.99441,92.709045 C 855.53293,92.709045 845.89699,102.42063 845.89699,115.86859 z M 855.15476,115.86859 C 855.15476,107.45794 860.63075,99.304446 869.99441,99.304446 C 879.2673,99.304446 884.72817,107.45794 884.72817,115.86859 C 884.72817,123.76492 880.19005,132.43273 869.99441,132.43273 C 859.708,132.43273 855.15476,123.76492 855.15476,115.86859" style="fill:#df0024;fill-rule:evenodd;stroke:none"/>
  </g>
</svg>